<?xml version="1.0" encoding="UTF-8" standalone="no"?>
<!-- Created with Inkscape (http://www.inkscape.org/) -->

<svg
   xmlns:dc="http://purl.org/dc/elements/1.1/"
   xmlns:cc="http://creativecommons.org/ns#"
   xmlns:rdf="http://www.w3.org/1999/02/22-rdf-syntax-ns#"
   xmlns:svg="http://www.w3.org/2000/svg"
   xmlns="http://www.w3.org/2000/svg"
   xmlns:sodipodi="http://sodipodi.sourceforge.net/DTD/sodipodi-0.dtd"
   xmlns:inkscape="http://www.inkscape.org/namespaces/inkscape"
   width="540"
   height="240"
   viewBox="0 0 540.00001 240.00001"
   id="svg6690"
   version="1.1"
   inkscape:version="0.91 r13725"
   sodipodi:docname="logo.svg">
  <defs
     id="defs6692">
    <pattern
       patternUnits="userSpaceOnUse"
       width="487.15738"
       height="291.31625"
       patternTransform="translate(32.586504,702.27227)"
       id="pattern6839">
      <g
         transform="translate(-32.586504,-700.8437)"
         id="g6824">
        <g
           id="g6523"
           transform="matrix(1.25,0,0,-1.25,-27.388621,1146.2137)">
          <path
             d="m 437.706,335.559 0,-191.579 c 0,-7.547 -3.858,-14.188 -9.587,-17.817 l 0,-0.007 c -0.687,-0.428 -1.397,-0.82 -2.136,-1.162 -2.403,-1.127 -5.059,-1.751 -7.843,-1.751 l -350.5939,0 c -0.2078,0 -0.4102,0.006 -0.6121,0.012 -0.2024,0.006 -0.4043,0.013 -0.6063,0.031 -0.1504,0.006 -0.3004,0.018 -0.4449,0.037 -0.1328,0.006 -0.2656,0.018 -0.3984,0.036 -0.2254,0.025 -0.4504,0.055 -0.6758,0.086 -0.277,0.043 -0.5543,0.092 -0.8258,0.147 -0.1789,0.03 -0.3578,0.073 -0.5312,0.116 -0.1559,0.031 -0.3063,0.067 -0.4563,0.11 -0.3754,0.092 -0.7508,0.203 -1.1148,0.319 -0.2481,0.085 -0.502,0.171 -0.7504,0.263 -0.2485,0.092 -0.491,0.19 -0.7395,0.288 -0.1152,0.049 -0.225,0.097 -0.3347,0.147 -0.3293,0.14 -0.6528,0.293 -0.9704,0.459 -0.1445,0.073 -0.2828,0.146 -0.4273,0.226 l -0.2598,0.147 -0.2601,0.147 c -0.1211,0.073 -0.2426,0.147 -0.3637,0.22 -0.2656,0.165 -0.5312,0.337 -0.791,0.514 -0.2602,0.178 -0.5141,0.361 -0.7684,0.551 -0.5023,0.386 -0.9875,0.79 -1.455,1.218 -0.1215,0.104 -0.2368,0.214 -0.3528,0.331 l -0.1961,0.189 c -0.566,0.563 -1.1027,1.163 -1.5996,1.788 -0.1269,0.159 -0.2539,0.318 -0.3695,0.477 -0.2426,0.318 -0.4734,0.649 -0.6988,0.986 -0.1329,0.201 -0.2657,0.404 -0.3868,0.605 -0.1156,0.184 -0.2253,0.368 -0.3351,0.557 -0.1387,0.233 -0.2656,0.478 -0.393,0.723 -0.075,0.134 -0.1441,0.275 -0.2078,0.41 -0.1156,0.226 -0.225,0.465 -0.3348,0.698 -0.0695,0.153 -0.1386,0.312 -0.2078,0.471 -0.2082,0.49 -0.3926,0.985 -0.5664,1.487 l 0,0.006 c -0.0574,0.166 -0.1152,0.337 -0.1613,0.508 -0.0578,0.166 -0.1039,0.337 -0.15,0.508 -0.1445,0.502 -0.2719,1.01 -0.3758,1.524 -0.0633,0.313 -0.1211,0.625 -0.173,0.937 l -0.0059,0.043 c -0.0348,0.238 -0.0691,0.483 -0.098,0.722 -0.1098,0.881 -0.1676,1.781 -0.1676,2.693 l 0,191.579 c 0,0.117 0,0.239 0.0058,0.355 0,0.123 0.0059,0.239 0.0059,0.355 0.0059,0.178 0.0113,0.355 0.023,0.533 0.0114,0.165 0.0231,0.33 0.0344,0.496 l 0.0117,0.104 c 0.0118,0.171 0.0289,0.342 0.0461,0.508 0.0176,0.171 0.0407,0.343 0.0637,0.508 0.0289,0.238 0.0633,0.471 0.1039,0.704 0.1215,0.771 0.2945,1.53 0.5024,2.27 0.0347,0.147 0.0808,0.288 0.1214,0.429 l 0.0403,0.128 c 0.0926,0.294 0.1847,0.588 0.2886,0.87 0.0868,0.257 0.1793,0.501 0.2774,0.746 0.1387,0.349 0.2887,0.698 0.4445,1.041 1.9,4.113 5.0418,7.467 8.8996,9.511 0.3407,0.184 0.693,0.355 1.0453,0.514 0.4563,0.209 0.9184,0.398 1.3918,0.57 0.1329,0.049 0.2657,0.092 0.3926,0.134 0.2426,0.086 0.491,0.166 0.7449,0.233 0.1329,0.043 0.2602,0.08 0.3926,0.11 0.1332,0.037 0.2602,0.074 0.393,0.104 0.1152,0.025 0.2308,0.049 0.3406,0.08 0.2832,0.061 0.566,0.116 0.8488,0.165 0.2082,0.037 0.4161,0.067 0.6239,0.098 l 0.1789,0.024 c 0.2715,0.031 0.5429,0.062 0.8203,0.086 0.1672,0.012 0.3351,0.025 0.5023,0.031 0.1617,0.012 0.3176,0.018 0.4739,0.024 0.1847,0.006 0.3636,0.006 0.5484,0.006 l 350.5939,0 c 0.913,0 1.814,-0.067 2.697,-0.195 0.965,-0.147 1.912,-0.362 2.824,-0.649 5.937,-1.861 10.719,-6.647 12.85,-12.762 l 0,-0.006 c 0.034,-0.092 0.063,-0.184 0.092,-0.276 0.063,-0.183 0.121,-0.373 0.179,-0.563 0.11,-0.355 0.208,-0.71 0.295,-1.077 0.057,-0.214 0.104,-0.434 0.15,-0.655 0.046,-0.214 0.092,-0.435 0.127,-0.655 0.023,-0.116 0.046,-0.232 0.063,-0.349 0.041,-0.238 0.075,-0.477 0.104,-0.722 l 0.012,-0.086 0.017,-0.147 c 0.029,-0.214 0.052,-0.428 0.064,-0.642 l 0.017,-0.208 c 0.017,-0.172 0.035,-0.349 0.04,-0.527 l 0.012,-0.238 0.006,-0.16 c 0.011,-0.275 0.017,-0.544 0.017,-0.82"
             style="fill:#8f521d;fill-opacity:1;fill-rule:nonzero;stroke:none"
             id="path2244"
             inkscape:connector-curvature="0" />
          <path
             d="m 437.703,325.946 0,-4.9 c -8.671,0.25 -17.361,0.78 -25.23,2.25 -8.586,1.61 -15.927,4.3 -24.9,5.45 -7.55,0.964 -15.478,0.752 -23.442,0.541 -5.421,-0.144 -10.859,-0.288 -16.205,-0.061 -11.284,0.49 -26.701,2.34 -36.203,5 -11.171,3.15 -14.945,7.06 -30.108,8.05 -13.275,0.87 -26.805,-0.12 -40.26,-0.16 -40.279,-0.14 -78.501,8.23 -118.78,8.49 -4.885,0.033 -9.771,-0.057 -14.655,-0.148 -5.417,-0.1 -10.8325,-0.201 -16.2454,-0.132 -13.3226,0.16 -25.6262,0.3 -37.7598,0.07 1.4532,1.5 3.1137,2.76 4.9344,3.72 0.3399,0.19 0.6891,0.36 1.0473,0.52 0.4531,0.2 0.9152,0.39 1.3871,0.57 l 0.2172,0.07 c 40.2602,0.45 80.4732,-2.02 120.3752,-4.49 29.032,-1.79 58.083,-3.57 87.115,-5.37 9.115,-0.56 18.493,-1.16 26.428,-3.12 5.426,-1.35 9.917,-3.27 15.257,-4.69 13.251,-3.514 29.143,-3.412 45.242,-3.31 10.566,0.068 21.221,0.135 31.278,-0.82 15.323,-1.45 28.825,-5.26 44.015,-6.94 2.142,-0.24 4.312,-0.43 6.492,-0.59"
             style="fill:#82451c;fill-opacity:1;fill-rule:nonzero;stroke:none"
             id="path2254"
             inkscape:connector-curvature="0" />
          <path
             d="m 437.703,291.316 0,-4.36 c -13.7,0 -27.4,-0.25 -41.072,-0.74 -6.519,-0.23 -13.171,-0.52 -19.531,0.24 -29.466,3.53 -57.885,9.97 -88.153,13.15 -34.014,3.57 -68.661,5.73 -103.429,6.43 -7.369,0.14 -14.861,0.24 -21.824,1.4 -5.595,0.93 -10.719,2.53 -16.484,3.15 -6.812,0.74 -13.916,0.07 -20.766,-0.6 -26.155,-2.59 -52.3096,-5.17 -78.4639,-7.74 l 0,5.7 c 12.0863,0.79 25.6449,-0.73 37.2125,1.45 4.4347,0.84 8.4918,2.21 13.1715,2.65 14.6249,1.38 44.8179,5.54 58.3759,2.14 3.227,-0.81 6.001,-2 9.275,-2.75 9.218,-2.13 20.059,-0.44 30.259,-0.6 10.822,-0.17 21.314,-2.47 32.117,-2.08 3.897,0.14 7.709,0.63 11.615,0.74 10.775,0.29 19.635,-2.63 29.938,-3.3 8.398,-0.55 15.521,-0.03 23.985,-1.04 16.747,-1.98 28.494,-5.75 43.43,-9.14 3.425,-0.78 7.35,-0.76 11.105,-0.96 14.908,-0.8 27.485,-5.83 42.355,-6.29 10.218,-0.32 20.05,1.92 30.231,2.22 5.434,0.16 11.001,0.27 16.653,0.33"
             style="fill:#82451c;fill-opacity:1;fill-rule:nonzero;stroke:none"
             id="path2262"
             inkscape:connector-curvature="0" />
          <path
             d="m 437.703,265.366 0,-3.77 c -13.879,-0.58 -27.73,-1.29 -41.544,-2.18 -20.191,-1.31 -40.269,-3.01 -60.432,-4.41 -31.391,-2.17 -63.452,-3.62 -94.674,-0.99 -26.598,2.25 -52.148,7.42 -79.105,8.13 -18.096,0.47 -36.127,-1.09 -53.998,-2.56 -19.9457,-1.64 -39.9391,-3.16 -59.9699,-4.53 l 0,6.39 c 4.5195,0.27 9.0578,0.5 13.5867,0.72 22.3992,1.1 44.8172,2.2 67.3112,2.74 23.192,0.55 46.751,0.47 69.188,-2.42 18.144,-2.33 35.468,-6.5 54.187,-7.18 18.889,-0.69 37.6,2.22 56.545,2.31 11.502,0.04 23.164,-0.95 34.449,0.17 8.048,0.8 15.483,2.63 23.314,3.83 11.049,1.69 22.73,2.09 34.278,2.49 12.285,0.42 24.57,0.84 36.864,1.26"
             style="fill:#82451c;fill-opacity:1;fill-rule:nonzero;stroke:none"
             id="path2264"
             inkscape:connector-curvature="0" />
          <path
             d="m 437.703,237.966 0,-4.72 c -3.576,-0.17 -7.161,-0.34 -10.737,-0.52 -6.492,-0.33 -13.03,-0.65 -19.503,-1.13 l -0.066,-0.01 c -7.331,-0.55 -14.587,-1.3 -21.579,-2.48 -0.217,-0.03 -0.424,-0.06 -0.641,-0.1 -0.746,-0.12 -1.491,-0.26 -2.217,-0.39 -13.559,-2.52 -26.693,-6.79 -41.138,-6.13 -11.841,0.54 -21.965,4.32 -33.429,5.82 -16.295,2.14 -33.382,-0.5 -50.035,-1.82 -19.041,-1.52 -38.657,-1.3 -57.527,0.63 -7.586,0.78 -15.276,1.84 -22.965,1.39 -10.36,-0.61 -19.22,-3.85 -29.221,-5.31 -14.285,-2.08 -30.127,-0.4 -44.242,-2.76 -18.4839,-3.09 -31.3913,-12.69 -50.394,-14.05 -0.7453,-0.06 -1.5,-0.1 -2.2645,-0.13 -0.0566,-0.21 -0.0941,-0.41 -0.0847,-0.61 0.1039,-2.27 4.9629,-4.01 9.2652,-5.17 12.5773,-3.4 25.4281,-6.59 38.4863,-9.55 6.6617,-1.51 13.3797,-2.96 20.1637,-4.35 12.935,-2.66 26.041,-5.09 39.345,-7.31 35.486,-5.91 74.689,-10.18 110.062,-4.11 14.313,2.45 27.815,6.56 42.958,6.96 10.332,0.27 20.588,-1.24 30.939,-1.06 19.106,0.33 36.608,6.32 55.715,5.98 9.586,-0.16 18.719,-1.93 28.164,-2.77 3.614,-0.32 7.265,-0.5 10.945,-0.6 l 0,-4.54 c -5.85,-0.11 -11.681,-0.11 -17.493,0.23 -11.728,0.69 -23.39,2.77 -35.005,3.17 -4.066,0.13 -8.133,0.06 -12.19,-0.35 -6.161,-0.63 -11.879,-2.02 -17.955,-2.82 -1.321,-0.17 -2.633,-0.31 -3.954,-0.43 -11.294,-1.02 -23.078,-0.3 -34.655,-0.46 -3.812,-0.06 -7.596,-0.22 -11.332,-0.56 -4.69,-0.43 -9.2,-1.15 -13.615,-2.02 -7.935,-1.55 -15.559,-3.58 -23.39,-5.28 -12.191,-2.64 -25.051,-2.62 -38.317,-3.4 -16.795,-0.98 -34.184,0.52 -49.271,4.23 -5.651,1.4 -11.058,3.11 -17.162,3.95 -7.511,1.03 -15.493,0.67 -23.287,0.94 -14.398,0.5 -28.419,3.26 -39.467,7.76 -15.2287,6.21 -25.7584,11.65 -47.0916,11.95 -1.8399,0.03 -3.6891,0.02 -5.5383,0.04 l 0,14.09 c 7.8594,1.4 16.559,2.2 23.6445,4.36 6.3973,1.95 11.1809,4.93 17.1817,7.15 17.6537,6.53 39.9677,2.72 60.0927,5.64 8.445,1.22 15.927,3.74 24.457,4.82 16.03,2.03 32.344,-1.25 48.808,-2.71 4.812,-0.42 9.633,-0.69 14.464,-0.63 4.369,0.06 8.69,0.39 12.993,0.86 16.86,1.85 33.315,5.84 50.035,4.1 15.511,-1.61 28.975,-8.04 44.713,-7.05 8.502,0.53 15.786,3.2 24.023,4.37 20.795,2.93 39.59,0.09 59.8,5.18 3.246,0.82 6.416,1.36 9.511,1.71"
             style="fill:#82451c;fill-opacity:1;fill-rule:nonzero;stroke:none"
             id="path2266"
             inkscape:connector-curvature="0" />
          <path
             d="m 437.703,252.476 0,-4.87 c -20.663,-1.76 -41.327,-3.52 -61.99,-5.28 -20.729,-1.77 -41.817,-3.54 -62.706,-2.31 -11.521,0.69 -23.013,2.29 -34.533,1.63 -5.369,-0.3 -10.568,-1.09 -15.88,-1.56 -27.381,-2.42 -55.328,3.63 -83.03,2.27 -12.021,-0.6 -23.569,-2.57 -34.967,-4.53 -10.652,-1.83 -21.286,-3.67 -31.938,-5.5 -6.482,-1.11 -12.9832,-2.23 -19.116,-3.76 -5.6332,-1.39 -10.9637,-3.13 -17.0024,-4.04 -8.473,-1.28 -17.6254,-0.82 -26.3527,-1.58 -0.7453,-0.06 -1.4813,-0.14 -2.2078,-0.22 l 0,3.79 c 6.6047,0.13 13.332,-0.24 19.6062,0.72 8.6051,1.32 15.1059,4.94 23.711,6.24 7.3785,1.11 15.4737,0.39 22.9557,1.32 7.558,0.95 13.766,3.47 20.418,5.45 20.616,6.16 45.233,7.02 68.849,6.64 11.634,-0.19 24.05,-0.25 35.533,-0.9 9.879,-0.56 21.965,-3.81 31.825,-2.06 2.84,0.5 5.312,1.43 8.209,1.85 10.888,1.6 20.776,-4.27 32.146,-4.45 10.029,-0.15 18.936,4.17 28.881,3.51 5.539,-0.38 10.907,-2.29 16.238,-1.47 2.265,0.34 4.095,1.13 6.095,1.74 11.313,3.44 24.032,0.5 36.081,1.72 9.605,0.97 17.134,3.87 27.013,4.76 4.048,0.37 8.095,0.66 12.162,0.89"
             style="fill:#82451c;fill-opacity:1;fill-rule:nonzero;stroke:none"
             id="path2268"
             inkscape:connector-curvature="0" />
          <path
             d="m 437.703,161.006 0,-6.94 c -11.483,-1.35 -22.994,-2.58 -34.495,-3.18 -11.792,-0.608 -23.686,-0.546 -35.573,-0.483 -13.918,0.073 -27.826,0.146 -41.551,-0.857 -15.134,-1.11 -29.806,-3.52 -45.025,-4.29 -44.421,-2.27 -86.314,9.34 -130.027,13.8 -34.986,3.57 -73.6234,2.91 -103.0519,12.64 l 0,3.09 c 26.2109,-9 61.2439,-8.71 93.2479,-10.93 49.564,-3.44 97.976,-13.83 147.747,-11.18 21.361,1.14 42.091,4.67 63.565,4.94 6.416,0.074 12.831,-0.143 19.239,-0.359 8.294,-0.281 16.577,-0.561 24.843,-0.211 9.737,0.41 19.219,1.67 28.749,2.73 4.095,0.45 8.199,0.86 12.332,1.23"
             style="fill:#82451c;fill-opacity:1;fill-rule:nonzero;stroke:none"
             id="path2270"
             inkscape:connector-curvature="0" />
          <path
             d="m 437.457,140.706 c -0.311,-2.04 -0.896,-3.97 -1.726,-5.76 -59.621,-2 -119.592,-1.3 -179.242,0.75 -16.917,0.58 -33.853,1.28 -50.601,2.63 -11.567,0.94 -23.248,2.19 -34.901,1.61 -9.067,-0.45 -18.247,-2.01 -27.06,-0.9 -7.161,0.89 -12.936,3.43 -19.654,4.92 -9.729,2.163 -20.528,2.032 -31.3902,1.902 -8.868,-0.107 -17.7781,-0.214 -26.1832,0.928 -6.0293,0.82 -11.6527,2.27 -17.7762,2.92 -0.3113,0.03 -0.632,0.06 -0.9433,0.08 l 0,3.8 c 9.3219,-0.46 18.0777,-2.83 27.466,-3.4 7.0797,-0.429 14.1574,0.192 21.2422,0.812 6.8047,0.595 13.6157,1.191 20.4427,0.858 15.804,-0.77 29.108,-6.36 44.789,-7.65 6.613,-0.539 13.343,-0.289 20.072,-0.039 6.895,0.255 13.79,0.511 20.556,-0.081 8.379,-0.74 16.05,-2.74 24.221,-3.9 9.529,-1.35 19.577,-1.53 29.494,-1.67 21.059,-0.29 46.337,-4.51 66.802,-1.82 5.142,0.67 10.086,1.84 15.407,1.92 8.492,0.13 16.106,-2.5 24.466,-3.2 6.56,-0.548 13.127,0.11 19.717,0.769 5.675,0.567 11.365,1.135 17.08,0.931 2.501,-0.09 5.001,-0.32 7.464,-0.14 3.849,0.3 7.029,1.56 10.52,2.38 5.765,1.37 12.643,1.52 19.738,1.35"
             style="fill:#82451c;fill-opacity:1;fill-rule:nonzero;stroke:none"
             id="path2272"
             inkscape:connector-curvature="0" />
          <path
             d="m 233.052,123.246 -41.005,0 c -7.001,0.51 -14.03,0.82 -21.06,0.47 -2.236,-0.11 -4.472,-0.28 -6.718,-0.47 l -23.05,0 c -5.963,1.11 -11.096,3.19 -16.946,4.5 -17.672,3.93 -38.8726,0.29 -57.5734,2.83 -5.3973,0.73 -10.473,1.97 -15.8797,2.68 -0.1414,0.24 -0.264,0.47 -0.3867,0.72 -0.0754,0.13 -0.1512,0.27 -0.2172,0.41 -0.1133,0.22 -0.2168,0.46 -0.3301,0.69 -0.066,0.16 -0.1418,0.32 -0.2078,0.48 -0.2074,0.49 -0.3961,0.98 -0.566,1.48 l 0,0.01 c -0.0281,0.09 -0.0566,0.18 -0.0941,0.27 8.9258,-0.57 17.389,-2.8 26.4281,-3.34 13.8793,-0.84 27.7489,2.34 41.6849,1.66 15.804,-0.76 29.108,-6.36 44.789,-7.64 13.389,-1.1 27.258,1.05 40.628,-0.13 8.379,-0.74 16.05,-2.74 24.22,-3.89 2.076,-0.3 4.171,-0.54 6.284,-0.73"
             style="fill:#82451c;fill-opacity:1;fill-rule:nonzero;stroke:none"
             id="path2276"
             inkscape:connector-curvature="0" />
          <path
             d="m 108.866,204.396 c -0.736,-1.34 3.868,-2.35 7.916,-3.02 27.013,-4.41 55.366,-8.12 84.615,-11.06 30.627,-3.09 64.481,-5.31 95.022,-2.15 12.351,1.28 24.013,3.42 37.081,3.63 8.926,0.14 17.785,-0.64 26.721,-0.55 16.492,0.17 31.589,3.3 48.082,3.13 8.293,-0.1 16.181,-1.01 24.333,-1.45 1.68,-0.09 3.369,-0.16 5.067,-0.21 l 0,-2.5 c -3.586,-0.02 -7.152,0.01 -10.719,0.14 -13.681,0.49 -27.258,2.3 -40.75,1.47 -5.322,-0.32 -10.257,-1.05 -15.503,-1.46 -13.935,-1.11 -28.928,0.03 -43.109,-0.76 -11.332,-0.63 -21.428,-2.43 -31.948,-3.81 -10.539,-1.38 -21.635,-1.37 -33.08,-1.77 -14.511,-0.52 -29.523,0.27 -42.543,2.21 -4.888,0.72 -9.558,1.61 -14.823,2.05 -6.482,0.54 -13.37,0.35 -20.097,0.49 -12.427,0.27 -24.541,1.7 -34.08,4.05 -13.153,3.24 -22.239,6.08 -40.666,6.24 -3.831,0.03 -7.728,-0.05 -11.4452,0.22 -3.7175,0.27 -7.3691,0.99 -8.3878,2.07 -1.0379,1.1 0.9054,2.28 3.6324,3.1 8.2176,2.46 21.8806,2.42 31.8346,4.25 5.529,1.02 9.662,2.57 14.842,3.73 15.247,3.41 34.504,1.42 51.875,2.94 7.293,0.65 13.756,1.96 21.116,2.52 17.87,1.37 36.165,-1.89 54.63,-1.74 18.531,0.15 36.288,3.73 54.422,2.59 13.389,-0.85 25.013,-4.2 38.6,-3.68 7.34,0.28 13.624,1.67 20.748,2.28 17.936,1.53 34.165,0.05 51.62,2.7 1.293,0.2 2.567,0.36 3.831,0.5 l 0,-2.21 c -1.623,-0.04 -3.255,-0.09 -4.878,-0.14 -12.879,-0.38 -25.919,-0.79 -38.005,-2.14 -11.7,-1.31 -23.041,-3.54 -35.524,-3.19 -10.218,0.27 -18.955,2.25 -28.862,3.03 -14.068,1.12 -28.806,-0.26 -43.195,-0.95 -16.436,-0.79 -33.372,-0.68 -49.667,0.33 -6.548,0.41 -13.181,0.96 -19.824,0.73 -8.944,-0.32 -16.596,-2.02 -25.22,-2.78 -12.341,-1.08 -26.022,-0.2 -38.203,-1.43 -16.578,-1.68 -27.957,-7.02 -45.459,-7.4"
             style="fill:#82451c;fill-opacity:1;fill-rule:nonzero;stroke:none"
             id="path2278"
             inkscape:connector-curvature="0" />
          <path
             d="m 316.979,351.401 -145.077,0 c -33.419,2.049 -67.038,3.928 -100.7071,3.928 -3.2308,0 -6.4629,-0.017 -9.6941,-0.053 l -0.0082,-0.003 0,0 0.0082,0.003 0.1793,0.06 c 0.0023,10e-4 0.0051,0.002 0.0078,0.003 0.0836,0.029 0.1676,0.058 0.2527,0.085 0.159,0.051 0.3199,0.096 0.4848,0.142 0.0234,0.009 0.0469,0.017 0.0699,0.025 0.0652,0.02 0.1297,0.039 0.1945,0.056 0.0403,0.01 0.0809,0.019 0.1223,0.029 0.0402,0.011 0.0793,0.022 0.1172,0.034 0.093,0.026 0.1848,0.05 0.2797,0.072 0.1152,0.025 0.2308,0.049 0.3406,0.08 0.1688,0.036 0.3375,0.071 0.5059,0.103 0.114,0.02 0.2281,0.041 0.3418,0.061 0.0254,0.005 0.0511,0.009 0.0765,0.014 0.1828,0.031 0.3657,0.058 0.5485,0.085 l 0.0406,0.006 0.1363,0.015 c 0.2617,0.028 0.5231,0.057 0.7848,0.086 0.0125,10e-4 0.025,0.002 0.0375,0.003 0.016,10e-4 0.032,0.002 0.048,0.004 0.1512,0.009 0.302,0.017 0.445,0.026 0.0031,0.001 0.0062,0.001 0.0093,0.001 0.0051,0 0.0102,10e-4 0.0153,10e-4 0.1621,0.009 0.3078,0.019 0.4625,0.019 0.1793,0.01 0.3586,0.01 0.5468,0.01 l 224.4086,0 -4.775,0 c 9.895,-1.728 19.936,-3.586 29.797,-4.895"
             style="fill:#b37d1d;fill-opacity:1;fill-rule:nonzero;stroke:none"
             id="path2302"
             inkscape:connector-curvature="0" />
          <path
             d="m 437.524,338.366 c -0.41,0.008 -0.821,0.017 -1.232,0.027 -1.02,2.67 -2.552,5.068 -4.464,7.057 1.2,-0.085 2.404,-0.163 3.61,-0.234 0.11,-0.215 0.216,-0.432 0.318,-0.651 0.28,-0.609 0.532,-1.235 0.755,-1.875 l 0,-0.006 c 0.009,-0.024 0.017,-0.047 0.025,-0.071 0.021,-0.069 0.042,-0.141 0.063,-0.207 l 0.028,-0.1 c 0.057,-0.15 0.104,-0.3 0.151,-0.46 0.093,-0.295 0.173,-0.583 0.251,-0.88 0.016,-0.066 0.032,-0.132 0.048,-0.198 0.057,-0.214 0.104,-0.434 0.15,-0.655 0.01,-0.047 0.02,-0.094 0.03,-0.141 0.032,-0.172 0.067,-0.344 0.097,-0.516 0.012,-0.072 0.028,-0.147 0.043,-0.225 0.008,-0.04 0.014,-0.081 0.02,-0.122 0.041,-0.238 0.075,-0.477 0.104,-0.722 l 0.003,-0.018 0,-0.003 m -48.956,13.035 -71.589,0 c -9.861,1.309 -19.902,3.167 -29.797,4.895 l 44.101,0 c 11.011,-0.28 22.059,-0.58 32.655,-1.57 8.442,-0.785 16.569,-2.008 24.63,-3.325"
             style="fill:#a7771d;fill-opacity:1;fill-rule:nonzero;stroke:none"
             id="path2316"
             inkscape:connector-curvature="0" />
        </g>
      </g>
    </pattern>
  </defs>
  <sodipodi:namedview
     id="base"
     pagecolor="#ffffff"
     bordercolor="#666666"
     borderopacity="1.0"
     inkscape:pageopacity="0.0"
     inkscape:pageshadow="2"
     inkscape:zoom="1.4"
     inkscape:cx="224.92181"
     inkscape:cy="138.76446"
     inkscape:document-units="px"
     inkscape:current-layer="layer1"
     showgrid="false"
     units="px"
     inkscape:window-width="1301"
     inkscape:window-height="744"
     inkscape:window-x="65"
     inkscape:window-y="24"
     inkscape:window-maximized="1"
     showguides="true"
     inkscape:guide-bbox="true">
    <sodipodi:guide
       position="250,160.71429"
       orientation="0,1"
       id="guide3834" />
    <sodipodi:guide
       position="432.85715,277.14286"
       orientation="0,1"
       id="guide3869" />
  </sodipodi:namedview>
  <metadata
     id="metadata6695">
    <rdf:RDF>
      <cc:Work
         rdf:about="">
        <dc:format>image/svg+xml</dc:format>
        <dc:type
           rdf:resource="http://purl.org/dc/dcmitype/StillImage" />
        <dc:title />
      </cc:Work>
    </rdf:RDF>
  </metadata>
  <g
     inkscape:label="Camada 1"
     inkscape:groupmode="layer"
     id="layer1"
     transform="translate(0,-812.36216)">
    <path
       inkscape:connector-curvature="0"
       id="path2300-6"
       style="fill:#aa4400;fill-opacity:1;fill-rule:nonzero;stroke:none"
       d="m 25.019037,936.8469 c 0.13354,0.27826 0.27216,0.55376 0.41587,0.8268 1.54144,0.0726 3.08042,0.15441 4.61442,0.24516 2.9242,2.97041 6.519377,5.20101 10.507507,6.40001 1.16916,0.3543 2.38186,0.6136 3.61666,0.7869 1.12971,0.1516 2.28157,0.2238 3.44766,0.2102 l 37.77137,-0.4404 c 10.31569,1.5621 20.714246,3.0032 31.508636,3.8801 13.54867,1.1068 27.66439,1.3254 41.73257,1.5191 l 50.22983,-0.5856 286.62988,-3.3419 c 0.24038,0 0.4694,-0.01 0.69826,-0.021 0.19759,0 0.38355,-0.016 0.59045,-0.032 -0.19884,0.016 -0.39239,0.026 -0.58541,0.037 -0.23579,0.013 -0.4643,0.015 -0.70033,0.018 l -447.802326,5.2211 c -1.1661,0.013 -2.31796,-0.059 -3.44765,-0.209 -0.81379,-0.1143 -1.61914,-0.2673 -2.40826,-0.4586 0.78911,0.19 1.59313,0.3429 2.41331,0.4522 1.12337,0.1529 2.28161,0.2289 3.43749,0.2154 l 20.9102,-0.2437 c -9.64186,-1.1779 -20.2266,-1.7187 -31.12073,-1.9494 -5.396927,-2.4971 -9.825487,-6.9599 -12.459377,-12.52828 m 478.194033,8.10398 c -0.08,0.028 -0.15901,0.056 -0.2365,0.082 -0.004,10e-5 -0.008,10e-5 -0.0115,0.01 0.004,0 0.006,0 0.0102,-2e-4 l 0.22812,-0.08 0.0102,-1e-4 m -0.56997,0.1996 c -0.20178,0.068 -0.40671,0.1338 -0.61451,0.1911 -0.031,0.01 -0.0612,0.02 -0.0916,0.031 0.0293,-0.01 0.0591,-0.021 0.0889,-0.033 0.20994,-0.061 0.41479,-0.1212 0.6171,-0.1886 m -0.9536,0.2959 c -0.0531,0.015 -0.10699,0.028 -0.16074,0.042 -0.0488,0.015 -0.0965,0.028 -0.14422,0.043 0.0482,-0.016 0.098,-0.031 0.1492,-0.045 0.0527,-0.014 0.10443,-0.025 0.15577,-0.039 m -1.73963,0.4266 c -0.1458,0.029 -0.29174,0.057 -0.43704,0.085 -0.0319,3e-4 -0.0642,0.013 -0.096,0.017 0.0323,-0.01 0.0651,-0.013 0.0975,-0.018 0.14493,-0.028 0.29033,-0.055 0.43566,-0.083 m -1.28425,0.227 -0.17639,0.025 c -0.33074,0.043 -0.66164,0.084 -0.99861,0.1178 0.33383,-0.041 0.66728,-0.082 1.00112,-0.1216 l 0.17387,-0.021 m -1.28408,0.1529 c -0.18953,0.015 -0.37892,0.031 -0.568,0.04 0.18251,-0.013 0.37501,-0.026 0.568,-0.04" />
    <path
       inkscape:connector-curvature="0"
       id="path2300"
       style="fill:#aa4400;fill-opacity:1;fill-rule:nonzero;stroke:none"
       d="m 400.23233,868.72954 c -0.10522,-0.29738 -0.21456,-0.59204 -0.32803,-0.88397 -1.24399,-0.0965 -2.48593,-0.20233 -3.72375,-0.31775 -2.33329,-3.19371 -5.21532,-5.60935 -8.42438,-6.93327 -0.94073,-0.39106 -1.91754,-0.68165 -2.91298,-0.88126 -0.9108,-0.17516 -1.84022,-0.26613 -2.78195,-0.26613 l -30.50389,0 c -8.31504,-1.78832 -16.69813,-3.44899 -25.40616,-4.51492 -10.9299,-1.34429 -22.32605,-1.75164 -33.68402,-2.13185 l -40.56526,0 -231.480227,0 c -0.194128,0 -0.379081,0 -0.564019,0.0136 -0.159581,0 -0.309864,0.0136 -0.477087,0.0258 0.16072,-0.015 0.317088,-0.0232 0.473061,-0.0312 0.190521,-0.008 0.375055,-0.008 0.565675,-0.008 l 361.641927,0 c 0.94173,0 1.87115,0.091 2.78195,0.26479 0.65604,0.13171 1.3049,0.30417 1.94031,0.51735 -0.63541,-0.21183 -1.28321,-0.38428 -1.94444,-0.51055 -0.90567,-0.17653 -1.84022,-0.27159 -2.7737,-0.27159 l -16.88692,0 c 7.77454,1.37145 16.31645,2.07754 25.11109,2.45775 4.33443,2.72117 7.86838,7.51986 9.9428,13.4714 M 14.175057,854.18949 c 0.06487,-0.0285 0.128937,-0.0571 0.19176,-0.0842 0.003,-0.003 0.0068,-0.004 0.0097,-0.005 -0.003,10e-4 -0.0061,0.004 -0.0077,0.004 l -0.184953,0.0815 -0.0087,0.004 m 0.462121,-0.20504 c 0.163592,-0.0706 0.329668,-0.13715 0.498016,-0.19554 0.02507,-0.0102 0.0496,-0.0203 0.07414,-0.0312 -0.02385,0.0102 -0.04793,0.0218 -0.07217,0.0339 -0.170095,0.0625 -0.336065,0.12349 -0.500074,0.19281 m 0.772805,-0.30281 c 0.04307,-0.0148 0.08662,-0.0285 0.130183,-0.0421 0.03958,-0.0148 0.07816,-0.0285 0.116857,-0.0435 -0.03905,0.0163 -0.07942,0.0313 -0.120884,0.0462 -0.04277,0.0136 -0.08458,0.0257 -0.126156,0.0393 m 1.408729,-0.4318 c 0.118013,-0.0285 0.236124,-0.0571 0.353719,-0.0842 0.02575,-0.005 0.05204,-0.0128 0.07777,-0.0177 -0.02613,0.006 -0.05272,0.0128 -0.07884,0.0191 -0.117291,0.0271 -0.234977,0.0557 -0.352572,0.0828 m 1.039149,-0.2254 0.142656,-0.0244 c 0.267467,-0.0407 0.53504,-0.0801 0.807461,-0.11275 -0.269936,0.0393 -0.539576,0.0787 -0.809535,0.11684 l -0.140582,0.0204 m 1.03832,-0.14666 c 0.15317,-0.0136 0.306248,-0.0285 0.459022,-0.0353 -0.14751,0.0128 -0.303064,0.0232 -0.459022,0.0353" />
    <text
       xml:space="preserve"
       style="font-style:normal;font-weight:normal;font-size:108.83501434px;line-height:125%;font-family:sans-serif;letter-spacing:0px;word-spacing:0px;fill:#552200;fill-opacity:1;stroke:none;stroke-width:1px;stroke-linecap:butt;stroke-linejoin:miter;stroke-opacity:1"
       x="-234.56003"
       y="1052.8927"
       id="text3603"
       sodipodi:linespacing="125%"
       transform="matrix(0.85165462,-0.51524215,0.53182487,0.85243642,0,0)"
       inkscape:transform-center-x="-6.9213885"
       inkscape:transform-center-y="22.698261"><tspan
         sodipodi:role="line"
         id="tspan3605"
         x="-234.56003"
         y="1052.8927"
         style="font-style:normal;font-variant:normal;font-weight:normal;font-stretch:normal;font-family:Rancho;-inkscape-font-specification:Rancho;fill:#552200">Aiana</tspan></text>
    <g
       id="g3383"
       transform="matrix(0.94640063,0,0,0.94640063,-39.384441,24.218434)">
      <text
         sodipodi:linespacing="125%"
         id="text8406"
         y="950.4541"
         x="193.06647"
         style="font-style:normal;font-weight:normal;font-size:112.23764038px;line-height:125%;font-family:sans-serif;letter-spacing:0px;word-spacing:0px;fill:#552200;fill-opacity:1;stroke:none;stroke-width:1px;stroke-linecap:butt;stroke-linejoin:miter;stroke-opacity:1"
         xml:space="preserve"><tspan
           style="font-style:normal;font-variant:normal;font-weight:normal;font-stretch:normal;font-family:Ruinik;-inkscape-font-specification:Ruinik;fill:#552200"
           y="950.4541"
           x="193.06647"
           id="tspan8408"
           sodipodi:role="line">ncho </tspan></text>
      <text
         transform="matrix(0.9557117,-0.29430451,0.29430451,0.9557117,0,0)"
         sodipodi:linespacing="125%"
         id="text3595"
         y="944.73022"
         x="-204.17557"
         style="font-style:normal;font-variant:normal;font-weight:normal;font-stretch:normal;font-size:55.31608582px;line-height:125%;font-family:Scriptina;-inkscape-font-specification:Scriptina;letter-spacing:0px;word-spacing:0px;fill:#552200;fill-opacity:1;stroke:none;stroke-width:1px;stroke-linecap:butt;stroke-linejoin:miter;stroke-opacity:1"
         xml:space="preserve"><tspan
           style="font-style:normal;font-variant:normal;font-weight:normal;font-stretch:normal;font-size:124.46118927px;font-family:Ruinik;-inkscape-font-specification:Ruinik;fill:#552200"
           y="944.73022"
           x="-204.17557"
           id="tspan3597"
           sodipodi:role="line">R</tspan></text>
      <g
         style="fill:#552200"
         transform="matrix(1.3560156,0,0,1.3560156,-67.045644,-254.65765)"
         id="g3861">
        <path
           inkscape:connector-curvature="0"
           id="path3816"
           style="fill:#552200;fill-opacity:1;fill-rule:nonzero;stroke:none"
           d="M 192.66679,866.80406 170.6349,847.1028 c -0.038,-0.0385 -0.0765,-0.0676 -0.12506,-0.0963 -0.48145,-0.4622 -1.25155,-0.48146 -1.76213,-0.0293 l -22.03152,19.70128 c -0.53925,0.48145 -0.57775,1.30005 -0.1057,1.83928 0.26001,0.28923 0.6164,0.43355 0.97232,0.43355 0.30839,0 0.6164,-0.10627 0.86695,-0.32774 l 3.96686,-3.55305 0,22.97555 c 0,1.80028 1.46366,3.27381 3.2743,3.27381 l 6.95201,0 c 1.69498,0 3.07159,-1.37726 3.07159,-3.07175 l 0,-11.6805 c 0,-0.25997 0.21208,-0.47162 0.47207,-0.47162 l 7.01978,0 c 0.25999,0 0.47147,0.21165 0.47147,0.47162 l 0,11.6805 c 0,1.69449 1.37721,3.07175 3.0717,3.07175 l 6.9525,0 c 1.82942,0 3.27379,-1.80084 3.27379,-4.10228 l 0,-22.02154 3.96734,3.55303 c 0.25012,0.22149 0.55861,0.32728 0.86651,0.32728 0.3564,0 0.7128,-0.14431 0.9723,-0.43355 0.46268,-0.53874 0.41429,-1.35735 -0.11519,-1.83882 z m -8.30046,6.42266 0,13.97168 c 0,0.93413 -0.4622,1.50215 -0.67416,1.50215 l -6.95202,0 c -0.25998,0 -0.47207,-0.21161 -0.47207,-0.47158 l 0,-11.66128 c 0,-1.69449 -1.37661,-3.07158 -3.0717,-3.07158 l -7.01966,0 c -1.69449,0 -3.07158,1.37709 -3.07158,3.07158 l 0,11.6805 c 0,0.26001 -0.2116,0.47158 -0.47159,0.47158 l -6.95251,0 c -0.36579,0 -0.67427,-0.29846 -0.67427,-0.67364 l 0,-25.30581 14.61731,-13.05714 14.74225,13.1822 0,10.36134 z" />
        <path
           inkscape:connector-curvature="0"
           id="path2242-6"
           style="fill:#552200;fill-opacity:1;fill-rule:nonzero;stroke:none"
           d="m 175.71921,859.52125 -12.86697,0 c -0.39498,0 -0.71813,0.45633 -0.71813,1.01406 l 0,9.36793 c 0,0.55774 0.32315,1.01411 0.71813,1.01411 l 12.86697,0 c 0.39497,0 0.71811,-0.45637 0.71811,-1.01411 l 0,-9.36793 c 0,-0.55773 -0.32314,-1.01406 -0.71811,-1.01406" />
      </g>
    </g>
  </g>
</svg>
